<svg height="512pt" viewBox="0 0 512 512" width="512pt" xmlns="http://www.w3.org/2000/svg"><path d="m256 376c.585938-54.417969 24.417969-106.128906 65.40625-141.886719 19.058594-16.625 41.144531-29.234375 65.695312-37.511719l18.898438 56.996094c-52.925781 17.636719-89.09375 66.828125-90 122.402344zm0 0" fill="#ffae3a"/><path d="m196 376c-.90625-55.574219-37.074219-104.78125-90-122.402344l18.894531-56.996094c77.507813 25.839844 130.199219 97.921876 131.105469 179.398438zm0 0" fill="#ffd13a"/><path d="m172.136719 262.519531 15.292969-94.4375-69.023438-66.285156 94.542969-14.53125 43.050781-87.265625 41.9375 86.503906 94.980469 12.949219-68.261719 67.46875 16.859375 94.527344s-64.144531-33.28125-85.078125-44.019531zm0 0" fill="#ffe079"/><path d="m421 301h30v30h-30zm0 0" fill="#ffd13a"/><path d="m61 451h30v30h-30zm0 0" fill="#faecd8"/><path d="m512 421h-30v-30h-30v30h-30v30h30v30h30v-30h30zm0 0" fill="#f4d7af"/><path d="m421 301h30v30h-30zm0 0" fill="#f4d7af"/><path d="m61 451h30v30h-30zm0 0" fill="#faecd8"/><path d="m256.4375 217.429688c20.933594 10.738281 85.078125 44.019531 85.078125 44.019531l-16.859375-94.523438 68.261719-67.472656-94.980469-12.949219-41.9375-86.503906v217.664062zm0 0" fill="#ffd13a"/><path d="m60 301h-30v30h-30v30h30v30h30v-30h30v-30h-30zm0 0" fill="#faecd8"/><path d="m391 391v-30h-270v30h30v91h-30v30h270v-30h-30v-91zm0 0" fill="#ffe079"/><path d="m391 482h-30v-91h30v-30h-135v151h135zm0 0" fill="#ffd13a"/><path d="m211 421h90v30h-90zm0 0" fill="#ffd13a"/><path d="m256 421h45v30h-45zm0 0" fill="#ffae3a"/></svg>